{
    "asset" : {
        "generator" : "Khronos glTF Blender I/O v1.6.16",
        "version" : "2.0"
    },
    "scene" : 0,
    "scenes" : [
        {
            "name" : "Scene",
            "nodes" : [
                0,
                1,
                2,
                3,
                4
            ]
        }
    ],
    "nodes" : [
        {
            "mesh" : 0,
            "name" : "Wall",
            "scale" : [
                0.5,
                4,
                10
            ],
            "translation" : [
                -9.5,
                4,
                0
            ]
        },
        {
            "mesh" : 1,
            "name" : "Sphere",
            "scale" : [
                1.600000023841858,
                1.600000023841858,
                1.600000023841858
            ],
            "translation" : [
                -4,
                1.796090006828308,
                0
            ]
        },
        {
            "mesh" : 2,
            "name" : "Cone",
            "scale" : [
                1.3962351083755493,
                1.3962351083755493,
                1.3962351083755493
            ],
            "translation" : [
                0,
                2,
                0
            ]
        },
        {
            "mesh" : 3,
            "name" : "Cube",
            "scale" : [
                1.2129838466644287,
                1.2129838466644287,
                1.2129838466644287
            ],
            "translation" : [
                4,
                1.7999999523162842,
                0
            ]
        },
        {
            "mesh" : 4,
            "name" : "Floor",
            "scale" : [
                10,
                0.25,
                10
            ],
            "translation" : [
                0,
                -0.25,
                0
            ]
        }
    ],
    "materials" : [
        {
            "doubleSided" : true,
            "name" : "Wall",
            "pbrMetallicRoughness" : {
                "baseColorFactor" : [
                    0.4256455898284912,
                    0.4256455898284912,
                    0.4256455898284912,
                    1
                ],
                "roughnessFactor" : 0.75
            }
        },
        {
            "doubleSided" : true,
            "name" : "Sphere",
            "pbrMetallicRoughness" : {
                "baseColorFactor" : [
                    0.8000000715255737,
                    0.04676124453544617,
                    0.021217817440629005,
                    1
                ],
                "roughnessFactor" : 0.05000000074505806
            }
        },
        {
            "doubleSided" : true,
            "name" : "Cone",
            "pbrMetallicRoughness" : {
                "baseColorFactor" : [
                    0.011804401874542236,
                    0.346091628074646,
                    0.8000000715255737,
                    1
                ],
                "metallicFactor" : 0,
                "roughnessFactor" : 0.10000000149011612
            }
        },
        {
            "doubleSided" : true,
            "name" : "Cube",
            "pbrMetallicRoughness" : {
                "baseColorFactor" : [
                    0.025761034339666367,
                    0.8000000715255737,
                    0,
                    1
                ],
                "metallicFactor" : 0,
                "roughnessFactor" : 0.5
            }
        },
        {
            "doubleSided" : true,
            "name" : "Ground",
            "pbrMetallicRoughness" : {
                "baseColorFactor" : [
                    0.6077126860618591,
                    0.35072559118270874,
                    0.35072559118270874,
                    1
                ],
                "roughnessFactor" : 0.10000000149011612
            }
        }
    ],
    "meshes" : [
        {
            "name" : "Cube.001",
            "primitives" : [
                {
                    "attributes" : {
                        "POSITION" : 0,
                        "NORMAL" : 1,
                        "TEXCOORD_0" : 2
                    },
                    "indices" : 3,
                    "material" : 0
                }
            ]
        },
        {
            "name" : "Sphere",
            "primitives" : [
                {
                    "attributes" : {
                        "POSITION" : 4,
                        "NORMAL" : 5,
                        "TEXCOORD_0" : 6
                    },
                    "indices" : 7,
                    "material" : 1
                }
            ]
        },
        {
            "name" : "Cone",
            "primitives" : [
                {
                    "attributes" : {
                        "POSITION" : 8,
                        "NORMAL" : 9,
                        "TEXCOORD_0" : 10
                    },
                    "indices" : 11,
                    "material" : 2
                }
            ]
        },
        {
            "name" : "Cube.002",
            "primitives" : [
                {
                    "attributes" : {
                        "POSITION" : 12,
                        "NORMAL" : 13,
                        "TEXCOORD_0" : 14
                    },
                    "indices" : 3,
                    "material" : 3
                }
            ]
        },
        {
            "name" : "Cube.003",
            "primitives" : [
                {
                    "attributes" : {
                        "POSITION" : 15,
                        "NORMAL" : 16,
                        "TEXCOORD_0" : 17
                    },
                    "indices" : 3,
                    "material" : 4
                }
            ]
        }
    ],
    "accessors" : [
        {
            "bufferView" : 0,
            "componentType" : 5126,
            "count" : 24,
            "max" : [
                1,
                1,
                1
            ],
            "min" : [
                -1,
                -1,
                -1
            ],
            "type" : "VEC3"
        },
        {
            "bufferView" : 1,
            "componentType" : 5126,
            "count" : 24,
            "type" : "VEC3"
        },
        {
            "bufferView" : 2,
            "componentType" : 5126,
            "count" : 24,
            "type" : "VEC2"
        },
        {
            "bufferView" : 3,
            "componentType" : 5123,
            "count" : 36,
            "type" : "SCALAR"
        },
        {
            "bufferView" : 4,
            "componentType" : 5126,
            "count" : 8735,
            "max" : [
                0.9872313737869263,
                0.9975767135620117,
                0.9872314929962158
            ],
            "min" : [
                -0.9872310161590576,
                -0.9975767135620117,
                -0.9872310161590576
            ],
            "type" : "VEC3"
        },
        {
            "bufferView" : 5,
            "componentType" : 5126,
            "count" : 8735,
            "type" : "VEC3"
        },
        {
            "bufferView" : 6,
            "componentType" : 5126,
            "count" : 8735,
            "type" : "VEC2"
        },
        {
            "bufferView" : 7,
            "componentType" : 5123,
            "count" : 47616,
            "type" : "SCALAR"
        },
        {
            "bufferView" : 8,
            "componentType" : 5126,
            "count" : 65,
            "max" : [
                1,
                1,
                1
            ],
            "min" : [
                -1,
                -1,
                -1
            ],
            "type" : "VEC3"
        },
        {
            "bufferView" : 9,
            "componentType" : 5126,
            "count" : 65,
            "type" : "VEC3"
        },
        {
            "bufferView" : 10,
            "componentType" : 5126,
            "count" : 65,
            "type" : "VEC2"
        },
        {
            "bufferView" : 11,
            "componentType" : 5123,
            "count" : 186,
            "type" : "SCALAR"
        },
        {
            "bufferView" : 12,
            "componentType" : 5126,
            "count" : 24,
            "max" : [
                1,
                1,
                1
            ],
            "min" : [
                -1,
                -1,
                -1
            ],
            "type" : "VEC3"
        },
        {
            "bufferView" : 13,
            "componentType" : 5126,
            "count" : 24,
            "type" : "VEC3"
        },
        {
            "bufferView" : 14,
            "componentType" : 5126,
            "count" : 24,
            "type" : "VEC2"
        },
        {
            "bufferView" : 15,
            "componentType" : 5126,
            "count" : 24,
            "max" : [
                1,
                1,
                1
            ],
            "min" : [
                -1,
                -1,
                -1
            ],
            "type" : "VEC3"
        },
        {
            "bufferView" : 16,
            "componentType" : 5126,
            "count" : 24,
            "type" : "VEC3"
        },
        {
            "bufferView" : 17,
            "componentType" : 5126,
            "count" : 24,
            "type" : "VEC2"
        }
    ],
    "bufferViews" : [
        {
            "buffer" : 0,
            "byteLength" : 288,
            "byteOffset" : 0
        },
        {
            "buffer" : 0,
            "byteLength" : 288,
            "byteOffset" : 288
        },
        {
            "buffer" : 0,
            "byteLength" : 192,
            "byteOffset" : 576
        },
        {
            "buffer" : 0,
            "byteLength" : 72,
            "byteOffset" : 768
        },
        {
            "buffer" : 0,
            "byteLength" : 104820,
            "byteOffset" : 840
        },
        {
            "buffer" : 0,
            "byteLength" : 104820,
            "byteOffset" : 105660
        },
        {
            "buffer" : 0,
            "byteLength" : 69880,
            "byteOffset" : 210480
        },
        {
            "buffer" : 0,
            "byteLength" : 95232,
            "byteOffset" : 280360
        },
        {
            "buffer" : 0,
            "byteLength" : 780,
            "byteOffset" : 375592
        },
        {
            "buffer" : 0,
            "byteLength" : 780,
            "byteOffset" : 376372
        },
        {
            "buffer" : 0,
            "byteLength" : 520,
            "byteOffset" : 377152
        },
        {
            "buffer" : 0,
            "byteLength" : 372,
            "byteOffset" : 377672
        },
        {
            "buffer" : 0,
            "byteLength" : 288,
            "byteOffset" : 378044
        },
        {
            "buffer" : 0,
            "byteLength" : 288,
            "byteOffset" : 378332
        },
        {
            "buffer" : 0,
            "byteLength" : 192,
            "byteOffset" : 378620
        },
        {
            "buffer" : 0,
            "byteLength" : 288,
            "byteOffset" : 378812
        },
        {
            "buffer" : 0,
            "byteLength" : 288,
            "byteOffset" : 379100
        },
        {
            "buffer" : 0,
            "byteLength" : 192,
            "byteOffset" : 379388
        }
    ],
    "buffers" : [
        {
            "byteLength" : 379580,
            "uri" : "TestScene.bin"
        }
    ]
}
