{
    "asset" : {
        "generator" : "Khronos glTF Blender I/O v1.6.16",
        "version" : "2.0"
    },
    "scene" : 0,
    "scenes" : [
        {
            "name" : "Scene",
            "nodes" : [
                0
            ]
        }
    ],
    "nodes" : [
        {
            "mesh" : 0,
            "name" : "Cylinder"
        }
    ],
    "meshes" : [
        {
            "name" : "Cylinder",
            "primitives" : [
                {
                    "attributes" : {
                        "POSITION" : 0,
                        "NORMAL" : 1,
                        "TEXCOORD_0" : 2
                    },
                    "indices" : 3
                }
            ]
        }
    ],
    "accessors" : [
        {
            "bufferView" : 0,
            "componentType" : 5126,
            "count" : 843,
            "max" : [
                0.5,
                0.5000001192092896,
                0.5000000596046448
            ],
            "min" : [
                -0.5,
                -0.5000001192092896,
                -0.5000000596046448
            ],
            "type" : "VEC3"
        },
        {
            "bufferView" : 1,
            "componentType" : 5126,
            "count" : 843,
            "type" : "VEC3"
        },
        {
            "bufferView" : 2,
            "componentType" : 5126,
            "count" : 843,
            "type" : "VEC2"
        },
        {
            "bufferView" : 3,
            "componentType" : 5123,
            "count" : 4224,
            "type" : "SCALAR"
        }
    ],
    "bufferViews" : [
        {
            "buffer" : 0,
            "byteLength" : 10116,
            "byteOffset" : 0
        },
        {
            "buffer" : 0,
            "byteLength" : 10116,
            "byteOffset" : 10116
        },
        {
            "buffer" : 0,
            "byteLength" : 6744,
            "byteOffset" : 20232
        },
        {
            "buffer" : 0,
            "byteLength" : 8448,
            "byteOffset" : 26976
        }
    ],
    "buffers" : [
        {
            "byteLength" : 35424,
            "uri" : "Cylinder.bin"
        }
    ]
}
