{
    "asset" : {
        "generator" : "Khronos glTF Blender I/O v1.8.19",
        "version" : "2.0"
    },
    "scene" : 0,
    "scenes" : [
        {
            "name" : "Scene",
            "nodes" : [
                7
            ]
        }
    ],
    "nodes" : [
        {
            "name" : "joint_trigger",
            "rotation" : [
                -2.195445958363962e-08,
                0.030017435550689697,
                0.999549388885498,
                6.843930577815627e-08
            ],
            "scale" : [
                1,
                0.9999999403953552,
                1.0000096559524536
            ],
            "translation" : [
                8.615569591086114e-09,
                0.04350005462765694,
                0.006999984849244356
            ]
        },
        {
            "name" : "joint_slide",
            "rotation" : [
                -2.1025009289132868e-08,
                0.030017521232366562,
                0.999549388885498,
                6.84111469695381e-08
            ],
            "scale" : [
                1,
                0.9999997615814209,
                1.0000096559524536
            ],
            "translation" : [
                2.9552916558373e-08,
                0.10950011014938354,
                0.04559992626309395
            ]
        },
        {
            "name" : "joint_hammer",
            "rotation" : [
                -2.101306151303106e-08,
                0.030017562210559845,
                0.999549388885498,
                6.841195698825686e-08
            ],
            "scale" : [
                1,
                0.9999998807907104,
                1.0000096559524536
            ],
            "translation" : [
                8.302093235101893e-09,
                -0.015167849138379097,
                0.03636777400970459
            ]
        },
        {
            "name" : "joint_gripsafety",
            "rotation" : [
                -2.1944460470990634e-08,
                0.030017558485269547,
                0.999549388885498,
                6.843986710691752e-08
            ],
            "scale" : [
                1,
                0.9999995827674866,
                1.000009536743164
            ],
            "translation" : [
                1.969001850454788e-09,
                -0.024764224886894226,
                0.02922351099550724
            ]
        },
        {
            "name" : "joint_bullet",
            "rotation" : [
                -2.1021365981255258e-08,
                0.030017510056495667,
                0.999549388885498,
                6.841155908432484e-08
            ],
            "scale" : [
                1,
                0.9999998807907104,
                1.000009536743164
            ],
            "translation" : [
                4.5507420054491377e-10,
                0.027984676882624626,
                0.03945125639438629
            ]
        },
        {
            "children" : [
                0,
                1,
                2,
                3,
                4
            ],
            "name" : "joint_CORE",
            "rotation" : [
                8.309498866765352e-08,
                0.7280135750770569,
                0.6855626702308655,
                1.4095370204358915e-08
            ],
            "scale" : [
                1,
                0.9999999403953552,
                1.0000029802322388
            ],
            "translation" : [
                -1.1942835165257293e-08,
                0.0023707295767962933,
                -0.07330457121133804
            ]
        },
        {
            "mesh" : 0,
            "name" : "pCylinder5",
            "skin" : 0
        },
        {
            "children" : [
                6,
                5
            ],
            "name" : "Armature"
        }
    ],
    "animations" : [
        {
            "channels" : [
                {
                    "sampler" : 0,
                    "target" : {
                        "node" : 5,
                        "path" : "translation"
                    }
                },
                {
                    "sampler" : 1,
                    "target" : {
                        "node" : 5,
                        "path" : "rotation"
                    }
                },
                {
                    "sampler" : 2,
                    "target" : {
                        "node" : 5,
                        "path" : "scale"
                    }
                },
                {
                    "sampler" : 3,
                    "target" : {
                        "node" : 0,
                        "path" : "translation"
                    }
                },
                {
                    "sampler" : 4,
                    "target" : {
                        "node" : 0,
                        "path" : "rotation"
                    }
                },
                {
                    "sampler" : 5,
                    "target" : {
                        "node" : 0,
                        "path" : "scale"
                    }
                },
                {
                    "sampler" : 6,
                    "target" : {
                        "node" : 1,
                        "path" : "translation"
                    }
                },
                {
                    "sampler" : 7,
                    "target" : {
                        "node" : 1,
                        "path" : "rotation"
                    }
                },
                {
                    "sampler" : 8,
                    "target" : {
                        "node" : 1,
                        "path" : "scale"
                    }
                },
                {
                    "sampler" : 9,
                    "target" : {
                        "node" : 2,
                        "path" : "translation"
                    }
                },
                {
                    "sampler" : 10,
                    "target" : {
                        "node" : 2,
                        "path" : "rotation"
                    }
                },
                {
                    "sampler" : 11,
                    "target" : {
                        "node" : 2,
                        "path" : "scale"
                    }
                },
                {
                    "sampler" : 12,
                    "target" : {
                        "node" : 3,
                        "path" : "translation"
                    }
                },
                {
                    "sampler" : 13,
                    "target" : {
                        "node" : 3,
                        "path" : "rotation"
                    }
                },
                {
                    "sampler" : 14,
                    "target" : {
                        "node" : 3,
                        "path" : "scale"
                    }
                },
                {
                    "sampler" : 15,
                    "target" : {
                        "node" : 4,
                        "path" : "translation"
                    }
                },
                {
                    "sampler" : 16,
                    "target" : {
                        "node" : 4,
                        "path" : "rotation"
                    }
                },
                {
                    "sampler" : 17,
                    "target" : {
                        "node" : 4,
                        "path" : "scale"
                    }
                }
            ],
            "name" : "Fire",
            "samplers" : [
                {
                    "input" : 7,
                    "interpolation" : "LINEAR",
                    "output" : 8
                },
                {
                    "input" : 7,
                    "interpolation" : "LINEAR",
                    "output" : 9
                },
                {
                    "input" : 10,
                    "interpolation" : "LINEAR",
                    "output" : 11
                },
                {
                    "input" : 7,
                    "interpolation" : "LINEAR",
                    "output" : 12
                },
                {
                    "input" : 10,
                    "interpolation" : "LINEAR",
                    "output" : 13
                },
                {
                    "input" : 10,
                    "interpolation" : "LINEAR",
                    "output" : 14
                },
                {
                    "input" : 7,
                    "interpolation" : "LINEAR",
                    "output" : 15
                },
                {
                    "input" : 10,
                    "interpolation" : "LINEAR",
                    "output" : 16
                },
                {
                    "input" : 10,
                    "interpolation" : "LINEAR",
                    "output" : 17
                },
                {
                    "input" : 10,
                    "interpolation" : "LINEAR",
                    "output" : 18
                },
                {
                    "input" : 7,
                    "interpolation" : "LINEAR",
                    "output" : 19
                },
                {
                    "input" : 10,
                    "interpolation" : "LINEAR",
                    "output" : 20
                },
                {
                    "input" : 10,
                    "interpolation" : "LINEAR",
                    "output" : 21
                },
                {
                    "input" : 7,
                    "interpolation" : "LINEAR",
                    "output" : 22
                },
                {
                    "input" : 10,
                    "interpolation" : "LINEAR",
                    "output" : 23
                },
                {
                    "input" : 7,
                    "interpolation" : "LINEAR",
                    "output" : 24
                },
                {
                    "input" : 7,
                    "interpolation" : "LINEAR",
                    "output" : 25
                },
                {
                    "input" : 10,
                    "interpolation" : "LINEAR",
                    "output" : 26
                }
            ]
        }
    ],
    "materials" : [
        {
            "doubleSided" : true,
            "name" : "lambert1",
            "normalTexture" : {
                "index" : 0,
                "scale" : 0
            },
            "pbrMetallicRoughness" : {
                "baseColorTexture" : {
                    "index" : 1
                },
                "metallicRoughnessTexture" : {
                    "index" : 2
                }
            }
        }
    ],
    "meshes" : [
        {
            "name" : "Mesh",
            "primitives" : [
                {
                    "attributes" : {
                        "POSITION" : 0,
                        "NORMAL" : 1,
                        "TEXCOORD_0" : 2,
                        "JOINTS_0" : 3,
                        "WEIGHTS_0" : 4
                    },
                    "indices" : 5,
                    "material" : 0
                }
            ]
        }
    ],
    "textures" : [
        {
            "sampler" : 0,
            "source" : 0
        },
        {
            "sampler" : 0,
            "source" : 1
        },
        {
            "sampler" : 0,
            "source" : 2
        }
    ],
    "images" : [
        {
            "mimeType" : "image/png",
            "name" : "m1911_normal",
            "uri" : "m1911_normal.png"
        },
        {
            "mimeType" : "image/png",
            "name" : "m1911_color",
            "uri" : "m1911_color.png"
        },
        {
            "mimeType" : "image/png",
            "name" : "m1911_metalness-m1911_roughness",
            "uri" : "m1911_metalness-m1911_roughness.png"
        }
    ],
    "skins" : [
        {
            "inverseBindMatrices" : 6,
            "joints" : [
                5,
                0,
                1,
                2,
                3,
                4
            ],
            "name" : "Armature"
        }
    ],
    "accessors" : [
        {
            "bufferView" : 0,
            "componentType" : 5126,
            "count" : 5769,
            "max" : [
                0.018886364996433258,
                0.09956790506839752,
                0.3414258658885956
            ],
            "min" : [
                -0.015894945710897446,
                -0.07631993293762207,
                -0.12030237913131714
            ],
            "type" : "VEC3"
        },
        {
            "bufferView" : 1,
            "componentType" : 5126,
            "count" : 5769,
            "type" : "VEC3"
        },
        {
            "bufferView" : 2,
            "componentType" : 5126,
            "count" : 5769,
            "type" : "VEC2"
        },
        {
            "bufferView" : 3,
            "componentType" : 5121,
            "count" : 5769,
            "type" : "VEC4"
        },
        {
            "bufferView" : 4,
            "componentType" : 5126,
            "count" : 5769,
            "type" : "VEC4"
        },
        {
            "bufferView" : 5,
            "componentType" : 5123,
            "count" : 11571,
            "type" : "SCALAR"
        },
        {
            "bufferView" : 6,
            "componentType" : 5126,
            "count" : 6,
            "type" : "MAT4"
        },
        {
            "bufferView" : 7,
            "componentType" : 5126,
            "count" : 401,
            "max" : [
                6.683333333333334
            ],
            "min" : [
                0.016666666666666666
            ],
            "type" : "SCALAR"
        },
        {
            "bufferView" : 8,
            "componentType" : 5126,
            "count" : 401,
            "type" : "VEC3"
        },
        {
            "bufferView" : 9,
            "componentType" : 5126,
            "count" : 401,
            "type" : "VEC4"
        },
        {
            "bufferView" : 10,
            "componentType" : 5126,
            "count" : 2,
            "max" : [
                6.683333333333334
            ],
            "min" : [
                0.016666666666666666
            ],
            "type" : "SCALAR"
        },
        {
            "bufferView" : 11,
            "componentType" : 5126,
            "count" : 2,
            "type" : "VEC3"
        },
        {
            "bufferView" : 12,
            "componentType" : 5126,
            "count" : 401,
            "type" : "VEC3"
        },
        {
            "bufferView" : 13,
            "componentType" : 5126,
            "count" : 2,
            "type" : "VEC4"
        },
        {
            "bufferView" : 14,
            "componentType" : 5126,
            "count" : 2,
            "type" : "VEC3"
        },
        {
            "bufferView" : 15,
            "componentType" : 5126,
            "count" : 401,
            "type" : "VEC3"
        },
        {
            "bufferView" : 16,
            "componentType" : 5126,
            "count" : 2,
            "type" : "VEC4"
        },
        {
            "bufferView" : 17,
            "componentType" : 5126,
            "count" : 2,
            "type" : "VEC3"
        },
        {
            "bufferView" : 18,
            "componentType" : 5126,
            "count" : 2,
            "type" : "VEC3"
        },
        {
            "bufferView" : 19,
            "componentType" : 5126,
            "count" : 401,
            "type" : "VEC4"
        },
        {
            "bufferView" : 20,
            "componentType" : 5126,
            "count" : 2,
            "type" : "VEC3"
        },
        {
            "bufferView" : 21,
            "componentType" : 5126,
            "count" : 2,
            "type" : "VEC3"
        },
        {
            "bufferView" : 22,
            "componentType" : 5126,
            "count" : 401,
            "type" : "VEC4"
        },
        {
            "bufferView" : 23,
            "componentType" : 5126,
            "count" : 2,
            "type" : "VEC3"
        },
        {
            "bufferView" : 24,
            "componentType" : 5126,
            "count" : 401,
            "type" : "VEC3"
        },
        {
            "bufferView" : 25,
            "componentType" : 5126,
            "count" : 401,
            "type" : "VEC4"
        },
        {
            "bufferView" : 26,
            "componentType" : 5126,
            "count" : 2,
            "type" : "VEC3"
        }
    ],
    "bufferViews" : [
        {
            "buffer" : 0,
            "byteLength" : 69228,
            "byteOffset" : 0
        },
        {
            "buffer" : 0,
            "byteLength" : 69228,
            "byteOffset" : 69228
        },
        {
            "buffer" : 0,
            "byteLength" : 46152,
            "byteOffset" : 138456
        },
        {
            "buffer" : 0,
            "byteLength" : 23076,
            "byteOffset" : 184608
        },
        {
            "buffer" : 0,
            "byteLength" : 92304,
            "byteOffset" : 207684
        },
        {
            "buffer" : 0,
            "byteLength" : 23142,
            "byteOffset" : 299988
        },
        {
            "buffer" : 0,
            "byteLength" : 384,
            "byteOffset" : 323132
        },
        {
            "buffer" : 0,
            "byteLength" : 1604,
            "byteOffset" : 323516
        },
        {
            "buffer" : 0,
            "byteLength" : 4812,
            "byteOffset" : 325120
        },
        {
            "buffer" : 0,
            "byteLength" : 6416,
            "byteOffset" : 329932
        },
        {
            "buffer" : 0,
            "byteLength" : 8,
            "byteOffset" : 336348
        },
        {
            "buffer" : 0,
            "byteLength" : 24,
            "byteOffset" : 336356
        },
        {
            "buffer" : 0,
            "byteLength" : 4812,
            "byteOffset" : 336380
        },
        {
            "buffer" : 0,
            "byteLength" : 32,
            "byteOffset" : 341192
        },
        {
            "buffer" : 0,
            "byteLength" : 24,
            "byteOffset" : 341224
        },
        {
            "buffer" : 0,
            "byteLength" : 4812,
            "byteOffset" : 341248
        },
        {
            "buffer" : 0,
            "byteLength" : 32,
            "byteOffset" : 346060
        },
        {
            "buffer" : 0,
            "byteLength" : 24,
            "byteOffset" : 346092
        },
        {
            "buffer" : 0,
            "byteLength" : 24,
            "byteOffset" : 346116
        },
        {
            "buffer" : 0,
            "byteLength" : 6416,
            "byteOffset" : 346140
        },
        {
            "buffer" : 0,
            "byteLength" : 24,
            "byteOffset" : 352556
        },
        {
            "buffer" : 0,
            "byteLength" : 24,
            "byteOffset" : 352580
        },
        {
            "buffer" : 0,
            "byteLength" : 6416,
            "byteOffset" : 352604
        },
        {
            "buffer" : 0,
            "byteLength" : 24,
            "byteOffset" : 359020
        },
        {
            "buffer" : 0,
            "byteLength" : 4812,
            "byteOffset" : 359044
        },
        {
            "buffer" : 0,
            "byteLength" : 6416,
            "byteOffset" : 363856
        },
        {
            "buffer" : 0,
            "byteLength" : 24,
            "byteOffset" : 370272
        }
    ],
    "samplers" : [
        {
            "magFilter" : 9729,
            "minFilter" : 9987
        }
    ],
    "buffers" : [
        {
            "byteLength" : 370296,
            "uri" : "m1911.bin"
        }
    ]
}
